<?xml version="1.0" encoding="UTF-8" standalone="no"?>
<!DOCTYPE svg PUBLIC "-//W3C//DTD SVG 1.1//EN" "http://www.w3.org/Graphics/SVG/1.1/DTD/svg11.dtd">
<svg width="100%" height="100%" viewBox="0 0 1814 1035" version="1.1" xmlns="http://www.w3.org/2000/svg" xmlns:xlink="http://www.w3.org/1999/xlink" xml:space="preserve" xmlns:serif="http://www.serif.com/" style="fill-rule:evenodd;clip-rule:evenodd;stroke-linejoin:round;stroke-miterlimit:2;">
    <g transform="matrix(1,0,0,1,-371.43,-399.8)">
        <g transform="matrix(1,0,0,1,-51.8218,10.3299)">
            <rect x="524.857" y="781.287" width="34.777" height="257.043" style="fill-rule:nonzero;"/>
            <path d="M725.086,770.441L725.086,796.782L694.785,796.782C683.422,796.782 675.531,799.078 671.112,803.669C666.693,808.26 664.484,816.524 664.484,828.461L664.484,845.505L716.65,845.505L716.65,870.125L664.484,870.125L664.484,1038.33L632.633,1038.33L632.633,870.125L602.332,870.125L602.332,845.505L632.633,845.505L632.633,832.076C632.633,810.613 637.626,794.975 647.611,785.161C657.597,775.348 673.436,770.441 695.129,770.441L725.086,770.441Z" style="fill-rule:nonzero;"/>
            <path d="M750.739,781.287L817.022,781.287L817.022,875.118L912.574,781.287L989.532,781.287L865.745,903.009L1002.27,1038.33L919.289,1038.33L817.022,937.097L817.022,1038.33L750.739,1038.33L750.739,781.287Z" style="fill-rule:nonzero;"/>
            <path d="M990.565,781.287L1208.01,781.287L1208.01,810.556L1116.76,810.556L1116.76,1038.33L1081.81,1038.33L1081.81,810.556L990.565,810.556L990.565,781.287Z" style="fill-rule:nonzero;"/>
            <path d="M1400.49,921.947L1400.49,1038.33L1368.81,1038.33L1368.81,922.98C1368.81,904.73 1365.26,891.072 1358.14,882.004C1351.02,872.937 1340.35,868.403 1326.12,868.403C1309.01,868.403 1295.53,873.855 1285.66,884.759C1275.79,895.663 1270.85,910.526 1270.85,929.35L1270.85,1038.33L1239,1038.33L1239,770.441L1270.85,770.441L1270.85,875.462C1278.43,863.87 1287.35,855.204 1297.62,849.465C1307.89,843.726 1319.75,840.857 1333.17,840.857C1355.33,840.857 1372.08,847.715 1383.45,861.431C1394.81,875.146 1400.49,895.318 1400.49,921.947Z" style="fill-rule:nonzero;"/>
            <path d="M1628.61,933.998L1628.61,949.493L1482.96,949.493C1484.34,971.301 1490.91,987.915 1502.67,999.335C1514.44,1010.76 1530.82,1016.47 1551.83,1016.47C1563.99,1016.47 1575.79,1014.97 1587.2,1011.99C1598.62,1009 1609.96,1004.53 1621.21,998.56L1621.21,1028.52C1609.85,1033.34 1598.19,1037.01 1586.26,1039.54C1574.32,1042.06 1562.21,1043.32 1549.93,1043.32C1519.17,1043.32 1494.81,1034.37 1476.85,1016.47C1458.88,998.56 1449.9,974.342 1449.9,943.812C1449.9,912.248 1458.42,887.198 1475.47,868.662C1492.51,850.125 1515.5,840.857 1544.42,840.857C1570.36,840.857 1590.88,849.207 1605.97,865.907C1621.06,882.607 1628.61,905.304 1628.61,933.998ZM1596.93,924.701C1596.7,907.37 1591.85,893.539 1582.38,883.21C1572.91,872.88 1560.38,867.715 1544.77,867.715C1527.09,867.715 1512.94,872.707 1502.33,882.693C1491.71,892.679 1485.6,906.739 1483.99,924.874L1596.93,924.701Z" style="fill-rule:nonzero;"/>
            <path d="M1840.89,921.947L1840.89,1038.33L1809.21,1038.33L1809.21,922.98C1809.21,904.73 1805.65,891.072 1798.54,882.004C1791.42,872.937 1780.75,868.403 1766.52,868.403C1749.41,868.403 1735.93,873.855 1726.06,884.759C1716.19,895.663 1711.25,910.526 1711.25,929.35L1711.25,1038.33L1679.4,1038.33L1679.4,845.505L1711.25,845.505L1711.25,875.462C1718.83,863.87 1727.75,855.204 1738.02,849.465C1748.3,843.726 1760.14,840.857 1773.57,840.857C1795.73,840.857 1812.48,847.715 1823.85,861.431C1835.21,875.146 1840.89,895.318 1840.89,921.947Z" style="fill-rule:nonzero;"/>
            <path d="M2046.46,907.141L2135.64,1038.33L2066.6,1038.33L2006.51,950.526L1946.94,1038.33L1877.56,1038.33L1966.74,907.141L1881.01,781.287L1950.22,781.287L2006.51,864.099L2062.64,781.287L2132.2,781.287L2046.46,907.141Z" style="fill-rule:nonzero;"/>
        </g>
        <g transform="matrix(1,0,0,1,-20.09,-30.5187)">
            <path d="M2205.51,744.181L391.52,744.181L391.52,1151.28L2205.51,1151.28L2205.51,744.181ZM2155.51,794.181L2155.51,1101.28C1895.66,1101.28 701.375,1101.28 441.52,1101.28C441.52,1101.28 441.52,794.181 441.52,794.181C441.52,794.181 2155.51,794.181 2155.51,794.181L2155.51,794.181Z"/>
        </g>
        <g transform="matrix(0.840283,0,0,1,1086.98,5.68434e-14)">
            <rect x="654.938" y="470.785" width="59.039" height="242.877"/>
        </g>
        <g transform="matrix(0.840283,0,0,1,243.058,649.978)">
            <rect x="654.938" y="470.785" width="59.039" height="242.877"/>
        </g>
        <g transform="matrix(1,0,0,0.920665,972.946,86.956)">
            <rect x="343.626" y="416.904" width="370.351" height="53.881"/>
        </g>
        <g transform="matrix(1,0,0,0.920665,449.765,930.205)">
            <rect x="343.626" y="416.904" width="370.351" height="53.881"/>
        </g>
        <g transform="matrix(1,0,0,1,792.312,843.249)">
            <g transform="matrix(1.02154,0,0,1,6.24039,9.96413)">
                <path d="M869.637,437.73C869.637,411.296 848.629,389.835 822.753,389.835L404.373,389.835C378.497,389.835 357.489,411.296 357.489,437.73L357.489,533.518C357.489,559.951 378.497,581.412 404.373,581.412L822.753,581.412C848.629,581.412 869.637,559.951 869.637,533.518L869.637,437.73Z"/>
                <path d="M869.637,437.73C869.637,411.296 848.629,389.835 822.753,389.835L404.373,389.835C378.497,389.835 357.489,411.296 357.489,437.73L357.489,533.518C357.489,559.951 378.497,581.412 404.373,581.412L822.753,581.412C848.629,581.412 869.637,559.951 869.637,533.518L869.637,437.73ZM406.434,439.835L406.434,531.412L820.692,531.412L820.692,439.835L406.434,439.835Z"/>
            </g>
            <g transform="matrix(6.82071,0,0,1,-2815.82,-11.3529)">
                <path d="M478.244,511.76C478.244,517.151 478.165,522.066 478.007,526.505C477.849,530.944 477.609,534.754 477.288,537.935C476.967,541.116 476.567,543.578 476.09,545.321C475.614,547.065 475.054,547.936 474.411,547.936C473.857,547.936 473.354,547.226 472.901,545.807C472.448,544.387 472.06,542.203 471.739,539.256C471.418,536.309 471.17,532.553 470.996,527.988C470.822,523.423 470.735,518.014 470.735,511.76C470.735,506.368 470.816,501.444 470.976,496.987C471.137,492.53 471.377,488.711 471.696,485.53C472.014,482.349 472.414,479.887 472.893,478.144C473.373,476.401 473.931,475.529 474.569,475.529C475.122,475.529 475.625,476.239 476.079,477.659C476.532,479.079 476.919,481.271 477.241,484.236C477.562,487.202 477.81,490.967 477.984,495.531C478.157,500.096 478.244,505.506 478.244,511.76ZM476.853,512.083C476.853,510.861 476.847,509.648 476.833,508.444C476.82,507.24 476.806,506.063 476.79,504.913L472.419,527.071C472.498,528.94 472.598,530.666 472.719,532.247C472.84,533.829 472.987,535.186 473.158,536.318C473.329,537.45 473.524,538.331 473.743,538.96C473.962,539.589 474.21,539.903 474.49,539.903C474.848,539.903 475.174,539.31 475.466,538.124C475.758,536.938 476.007,535.177 476.213,532.84C476.418,530.504 476.577,527.602 476.687,524.133C476.798,520.665 476.853,516.648 476.853,512.083ZM472.126,511.436C472.126,512.55 472.128,513.665 472.13,514.779C472.133,515.893 472.142,516.971 472.158,518.014L476.529,495.963C476.45,494.13 476.35,492.458 476.229,490.949C476.108,489.439 475.963,488.136 475.794,487.04C475.625,485.944 475.433,485.09 475.217,484.479C475.001,483.868 474.759,483.562 474.49,483.562C474.131,483.562 473.806,484.156 473.514,485.342C473.221,486.528 472.972,488.298 472.767,490.652C472.561,493.006 472.403,495.918 472.292,499.386C472.182,502.855 472.126,506.871 472.126,511.436Z" style="fill:white;fill-rule:nonzero;"/>
                <path d="M486.821,546.966L480.331,546.966L480.331,538.232L482.987,538.232L482.987,486.797L480.513,495.963L480.007,487.983L483.295,476.176L484.513,476.176L484.513,538.232L486.821,538.232L486.821,546.966Z" style="fill:white;fill-rule:nonzero;"/>
                <path d="M495.721,546.966L489.232,546.966L489.232,538.232L491.888,538.232L491.888,486.797L489.414,495.963L488.908,487.983L492.196,476.176L493.413,476.176L493.413,538.232L495.721,538.232L495.721,546.966Z" style="fill:white;fill-rule:nonzero;"/>
                <path d="M504.622,546.966L498.132,546.966L498.132,538.232L500.788,538.232L500.788,486.797L498.314,495.963L497.808,487.983L501.096,476.176L502.314,476.176L502.314,538.232L504.622,538.232L504.622,546.966Z" style="fill:white;fill-rule:nonzero;"/>
                <path d="M513.522,546.966L507.033,546.966L507.033,538.232L509.689,538.232L509.689,486.797L507.214,495.963L506.709,487.983L509.997,476.176L511.214,476.176L511.214,538.232L513.522,538.232L513.522,546.966Z" style="fill:white;fill-rule:nonzero;"/>
                <path d="M522.747,511.76C522.747,517.151 522.668,522.066 522.51,526.505C522.352,530.944 522.112,534.754 521.79,537.935C521.469,541.116 521.07,543.578 520.593,545.321C520.116,547.065 519.556,547.936 518.913,547.936C518.36,547.936 517.857,547.226 517.403,545.807C516.95,544.387 516.563,542.203 516.241,539.256C515.92,536.309 515.672,532.553 515.498,527.988C515.324,523.423 515.238,518.014 515.238,511.76C515.238,506.368 515.318,501.444 515.479,496.987C515.639,492.53 515.879,488.711 516.198,485.53C516.517,482.349 516.916,479.887 517.395,478.144C517.875,476.401 518.434,475.529 519.071,475.529C519.625,475.529 520.128,476.239 520.581,477.659C521.034,479.079 521.421,481.271 521.743,484.236C522.064,487.202 522.312,490.967 522.486,495.531C522.66,500.096 522.747,505.506 522.747,511.76ZM521.356,512.083C521.356,510.861 521.349,509.648 521.336,508.444C521.323,507.24 521.308,506.063 521.292,504.913L516.921,527.071C517,528.94 517.1,530.666 517.222,532.247C517.343,533.829 517.489,535.186 517.66,536.318C517.832,537.45 518.027,538.331 518.245,538.96C518.464,539.589 518.713,539.903 518.992,539.903C519.351,539.903 519.676,539.31 519.968,538.124C520.261,536.938 520.51,535.177 520.715,532.84C520.921,530.504 521.079,527.602 521.19,524.133C521.3,520.665 521.356,516.648 521.356,512.083ZM516.629,511.436C516.629,512.55 516.63,513.665 516.633,514.779C516.635,515.893 516.645,516.971 516.66,518.014L521.032,495.963C520.952,494.13 520.852,492.458 520.731,490.949C520.61,489.439 520.465,488.136 520.296,487.04C520.128,485.944 519.935,485.09 519.719,484.479C519.503,483.868 519.261,483.562 518.992,483.562C518.634,483.562 518.308,484.156 518.016,485.342C517.723,486.528 517.475,488.298 517.269,490.652C517.063,493.006 516.905,495.918 516.795,499.386C516.684,502.855 516.629,506.871 516.629,511.436Z" style="fill:white;fill-rule:nonzero;"/>
                <path d="M531.647,511.76C531.647,517.151 531.568,522.066 531.41,526.505C531.252,530.944 531.012,534.754 530.691,537.935C530.369,541.116 529.97,543.578 529.493,545.321C529.016,547.065 528.456,547.936 527.814,547.936C527.26,547.936 526.757,547.226 526.304,545.807C525.851,544.387 525.463,542.203 525.142,539.256C524.82,536.309 524.573,532.553 524.399,527.988C524.225,523.423 524.138,518.014 524.138,511.76C524.138,506.368 524.218,501.444 524.379,496.987C524.54,492.53 524.78,488.711 525.098,485.53C525.417,482.349 525.816,479.887 526.296,478.144C526.775,476.401 527.334,475.529 527.972,475.529C528.525,475.529 529.028,476.239 529.481,477.659C529.935,479.079 530.322,481.271 530.643,484.236C530.965,487.202 531.213,490.967 531.386,495.531C531.56,500.096 531.647,505.506 531.647,511.76ZM530.256,512.083C530.256,510.861 530.25,509.648 530.236,508.444C530.223,507.24 530.209,506.063 530.193,504.913L525.822,527.071C525.901,528.94 526.001,530.666 526.122,532.247C526.243,533.829 526.389,535.186 526.561,536.318C526.732,537.45 526.927,538.331 527.146,538.96C527.364,539.589 527.613,539.903 527.893,539.903C528.251,539.903 528.576,539.31 528.869,538.124C529.161,536.938 529.41,535.177 529.616,532.84C529.821,530.504 529.979,527.602 530.09,524.133C530.201,520.665 530.256,516.648 530.256,512.083ZM525.529,511.436C525.529,512.55 525.531,513.665 525.533,514.779C525.536,515.893 525.545,516.971 525.561,518.014L529.932,495.963C529.853,494.13 529.753,492.458 529.632,490.949C529.51,489.439 529.366,488.136 529.197,487.04C529.028,485.944 528.836,485.09 528.62,484.479C528.404,483.868 528.161,483.562 527.893,483.562C527.534,483.562 527.209,484.156 526.916,485.342C526.624,486.528 526.375,488.298 526.169,490.652C525.964,493.006 525.806,495.918 525.695,499.386C525.585,502.855 525.529,506.871 525.529,511.436Z" style="fill:white;fill-rule:nonzero;"/>
                <path d="M540.548,511.76C540.548,517.151 540.469,522.066 540.311,526.505C540.153,530.944 539.913,534.754 539.591,537.935C539.27,541.116 538.871,543.578 538.394,545.321C537.917,547.065 537.357,547.936 536.714,547.936C536.161,547.936 535.658,547.226 535.204,545.807C534.751,544.387 534.364,542.203 534.042,539.256C533.721,536.309 533.473,532.553 533.299,527.988C533.125,523.423 533.038,518.014 533.038,511.76C533.038,506.368 533.119,501.444 533.28,496.987C533.44,492.53 533.68,488.711 533.999,485.53C534.318,482.349 534.717,479.887 535.196,478.144C535.676,476.401 536.235,475.529 536.872,475.529C537.425,475.529 537.929,476.239 538.382,477.659C538.835,479.079 539.222,481.271 539.544,484.236C539.865,487.202 540.113,490.967 540.287,495.531C540.461,500.096 540.548,505.506 540.548,511.76ZM539.157,512.083C539.157,510.861 539.15,509.648 539.137,508.444C539.124,507.24 539.109,506.063 539.093,504.913L534.722,527.071C534.801,528.94 534.901,530.666 535.023,532.247C535.144,533.829 535.29,535.186 535.461,536.318C535.632,537.45 535.827,538.331 536.046,538.96C536.265,539.589 536.514,539.903 536.793,539.903C537.151,539.903 537.477,539.31 537.769,538.124C538.062,536.938 538.311,535.177 538.516,532.84C538.722,530.504 538.88,527.602 538.991,524.133C539.101,520.665 539.157,516.648 539.157,512.083ZM534.43,511.436C534.43,512.55 534.431,513.665 534.434,514.779C534.436,515.893 534.445,516.971 534.461,518.014L538.832,495.963C538.753,494.13 538.653,492.458 538.532,490.949C538.411,489.439 538.266,488.136 538.097,487.04C537.929,485.944 537.736,485.09 537.52,484.479C537.304,483.868 537.062,483.562 536.793,483.562C536.435,483.562 536.109,484.156 535.817,485.342C535.524,486.528 535.275,488.298 535.07,490.652C534.864,493.006 534.706,495.918 534.596,499.386C534.485,502.855 534.43,506.871 534.43,511.436Z" style="fill:white;fill-rule:nonzero;"/>
            </g>
        </g>
        <g transform="matrix(1,0,0,1,421.961,5.68434e-14)">
            <g transform="matrix(1.02154,0,0,1,6.24039,9.96413)">
                <path d="M869.637,437.73C869.637,411.296 848.629,389.835 822.753,389.835L404.373,389.835C378.497,389.835 357.489,411.296 357.489,437.73L357.489,533.518C357.489,559.951 378.497,581.412 404.373,581.412L822.753,581.412C848.629,581.412 869.637,559.951 869.637,533.518L869.637,437.73Z"/>
                <path d="M869.637,437.73C869.637,411.296 848.629,389.835 822.753,389.835L404.373,389.835C378.497,389.835 357.489,411.296 357.489,437.73L357.489,533.518C357.489,559.951 378.497,581.412 404.373,581.412L822.753,581.412C848.629,581.412 869.637,559.951 869.637,533.518L869.637,437.73ZM406.434,439.835L406.434,531.412L820.692,531.412L820.692,439.835L406.434,439.835Z"/>
            </g>
            <g transform="matrix(6.82071,0,0,1,-2815.82,-11.3529)">
                <path d="M478.244,511.76C478.244,517.151 478.165,522.066 478.007,526.505C477.849,530.944 477.609,534.754 477.288,537.935C476.967,541.116 476.567,543.578 476.09,545.321C475.614,547.065 475.054,547.936 474.411,547.936C473.857,547.936 473.354,547.226 472.901,545.807C472.448,544.387 472.06,542.203 471.739,539.256C471.418,536.309 471.17,532.553 470.996,527.988C470.822,523.423 470.735,518.014 470.735,511.76C470.735,506.368 470.816,501.444 470.976,496.987C471.137,492.53 471.377,488.711 471.696,485.53C472.014,482.349 472.414,479.887 472.893,478.144C473.373,476.401 473.931,475.529 474.569,475.529C475.122,475.529 475.625,476.239 476.079,477.659C476.532,479.079 476.919,481.271 477.241,484.236C477.562,487.202 477.81,490.967 477.984,495.531C478.157,500.096 478.244,505.506 478.244,511.76ZM476.853,512.083C476.853,510.861 476.847,509.648 476.833,508.444C476.82,507.24 476.806,506.063 476.79,504.913L472.419,527.071C472.498,528.94 472.598,530.666 472.719,532.247C472.84,533.829 472.987,535.186 473.158,536.318C473.329,537.45 473.524,538.331 473.743,538.96C473.962,539.589 474.21,539.903 474.49,539.903C474.848,539.903 475.174,539.31 475.466,538.124C475.758,536.938 476.007,535.177 476.213,532.84C476.418,530.504 476.577,527.602 476.687,524.133C476.798,520.665 476.853,516.648 476.853,512.083ZM472.126,511.436C472.126,512.55 472.128,513.665 472.13,514.779C472.133,515.893 472.142,516.971 472.158,518.014L476.529,495.963C476.45,494.13 476.35,492.458 476.229,490.949C476.108,489.439 475.963,488.136 475.794,487.04C475.625,485.944 475.433,485.09 475.217,484.479C475.001,483.868 474.759,483.562 474.49,483.562C474.131,483.562 473.806,484.156 473.514,485.342C473.221,486.528 472.972,488.298 472.767,490.652C472.561,493.006 472.403,495.918 472.292,499.386C472.182,502.855 472.126,506.871 472.126,511.436Z" style="fill:white;fill-rule:nonzero;"/>
                <path d="M486.821,546.966L480.331,546.966L480.331,538.232L482.987,538.232L482.987,486.797L480.513,495.963L480.007,487.983L483.295,476.176L484.513,476.176L484.513,538.232L486.821,538.232L486.821,546.966Z" style="fill:white;fill-rule:nonzero;"/>
                <path d="M495.721,546.966L489.232,546.966L489.232,538.232L491.888,538.232L491.888,486.797L489.414,495.963L488.908,487.983L492.196,476.176L493.413,476.176L493.413,538.232L495.721,538.232L495.721,546.966Z" style="fill:white;fill-rule:nonzero;"/>
                <path d="M504.946,511.76C504.946,517.151 504.867,522.066 504.709,526.505C504.551,530.944 504.311,534.754 503.989,537.935C503.668,541.116 503.269,543.578 502.792,545.321C502.315,547.065 501.755,547.936 501.112,547.936C500.559,547.936 500.056,547.226 499.602,545.807C499.149,544.387 498.762,542.203 498.44,539.256C498.119,536.309 497.871,532.553 497.697,527.988C497.524,523.423 497.437,518.014 497.437,511.76C497.437,506.368 497.517,501.444 497.678,496.987C497.838,492.53 498.078,488.711 498.397,485.53C498.716,482.349 499.115,479.887 499.595,478.144C500.074,476.401 500.633,475.529 501.27,475.529C501.824,475.529 502.327,476.239 502.78,477.659C503.233,479.079 503.621,481.271 503.942,484.236C504.263,487.202 504.511,490.967 504.685,495.531C504.859,500.096 504.946,505.506 504.946,511.76ZM503.555,512.083C503.555,510.861 503.548,509.648 503.535,508.444C503.522,507.24 503.507,506.063 503.491,504.913L499.12,527.071C499.199,528.94 499.299,530.666 499.421,532.247C499.542,533.829 499.688,535.186 499.859,536.318C500.031,537.45 500.226,538.331 500.444,538.96C500.663,539.589 500.912,539.903 501.191,539.903C501.55,539.903 501.875,539.31 502.167,538.124C502.46,536.938 502.709,535.177 502.914,532.84C503.12,530.504 503.278,527.602 503.389,524.133C503.499,520.665 503.555,516.648 503.555,512.083ZM498.828,511.436C498.828,512.55 498.829,513.665 498.832,514.779C498.834,515.893 498.844,516.971 498.859,518.014L503.231,495.963C503.152,494.13 503.051,492.458 502.93,490.949C502.809,489.439 502.664,488.136 502.495,487.04C502.327,485.944 502.134,485.09 501.918,484.479C501.702,483.868 501.46,483.562 501.191,483.562C500.833,483.562 500.507,484.156 500.215,485.342C499.923,486.528 499.674,488.298 499.468,490.652C499.263,493.006 499.104,495.918 498.994,499.386C498.883,502.855 498.828,506.871 498.828,511.436Z" style="fill:white;fill-rule:nonzero;"/>
                <path d="M513.522,546.966L507.033,546.966L507.033,538.232L509.689,538.232L509.689,486.797L507.214,495.963L506.709,487.983L509.997,476.176L511.214,476.176L511.214,538.232L513.522,538.232L513.522,546.966Z" style="fill:white;fill-rule:nonzero;"/>
                <path d="M522.747,511.76C522.747,517.151 522.668,522.066 522.51,526.505C522.352,530.944 522.112,534.754 521.79,537.935C521.469,541.116 521.07,543.578 520.593,545.321C520.116,547.065 519.556,547.936 518.913,547.936C518.36,547.936 517.857,547.226 517.403,545.807C516.95,544.387 516.563,542.203 516.241,539.256C515.92,536.309 515.672,532.553 515.498,527.988C515.324,523.423 515.238,518.014 515.238,511.76C515.238,506.368 515.318,501.444 515.479,496.987C515.639,492.53 515.879,488.711 516.198,485.53C516.517,482.349 516.916,479.887 517.395,478.144C517.875,476.401 518.434,475.529 519.071,475.529C519.625,475.529 520.128,476.239 520.581,477.659C521.034,479.079 521.421,481.271 521.743,484.236C522.064,487.202 522.312,490.967 522.486,495.531C522.66,500.096 522.747,505.506 522.747,511.76ZM521.356,512.083C521.356,510.861 521.349,509.648 521.336,508.444C521.323,507.24 521.308,506.063 521.292,504.913L516.921,527.071C517,528.94 517.1,530.666 517.222,532.247C517.343,533.829 517.489,535.186 517.66,536.318C517.832,537.45 518.027,538.331 518.245,538.96C518.464,539.589 518.713,539.903 518.992,539.903C519.351,539.903 519.676,539.31 519.968,538.124C520.261,536.938 520.51,535.177 520.715,532.84C520.921,530.504 521.079,527.602 521.19,524.133C521.3,520.665 521.356,516.648 521.356,512.083ZM516.629,511.436C516.629,512.55 516.63,513.665 516.633,514.779C516.635,515.893 516.645,516.971 516.66,518.014L521.032,495.963C520.952,494.13 520.852,492.458 520.731,490.949C520.61,489.439 520.465,488.136 520.296,487.04C520.128,485.944 519.935,485.09 519.719,484.479C519.503,483.868 519.261,483.562 518.992,483.562C518.634,483.562 518.308,484.156 518.016,485.342C517.723,486.528 517.475,488.298 517.269,490.652C517.063,493.006 516.905,495.918 516.795,499.386C516.684,502.855 516.629,506.871 516.629,511.436Z" style="fill:white;fill-rule:nonzero;"/>
                <path d="M531.323,546.966L524.834,546.966L524.834,538.232L527.49,538.232L527.49,486.797L525.015,495.963L524.51,487.983L527.798,476.176L529.015,476.176L529.015,538.232L531.323,538.232L531.323,546.966Z" style="fill:white;fill-rule:nonzero;"/>
                <path d="M540.224,546.966L533.734,546.966L533.734,538.232L536.39,538.232L536.39,486.797L533.916,495.963L533.41,487.983L536.698,476.176L537.916,476.176L537.916,538.232L540.224,538.232L540.224,546.966Z" style="fill:white;fill-rule:nonzero;"/>
            </g>
        </g>
    </g>
</svg>
