<?xml version="1.0" encoding="UTF-8" standalone="no"?>
<!DOCTYPE svg PUBLIC "-//W3C//DTD SVG 1.1//EN" "http://www.w3.org/Graphics/SVG/1.1/DTD/svg11.dtd">
<svg width="100%" height="100%" viewBox="0 0 1814 1035" version="1.1" xmlns="http://www.w3.org/2000/svg" xmlns:xlink="http://www.w3.org/1999/xlink" xml:space="preserve" xmlns:serif="http://www.serif.com/" style="fill-rule:evenodd;clip-rule:evenodd;stroke-linejoin:round;stroke-miterlimit:2;">
    <g transform="matrix(1,0,0,1,-371.43,-399.8)">
        <g transform="matrix(1,0,0,1,-51.8218,10.3299)">
            <text x="490.252px" y="1038.33px" style="font-family:'DejaVuSans', 'DejaVu Sans', sans-serif;font-size:352.595px;">If</text>
            <text x="718.371px" y="1038.33px" style="font-family:'DejaVuSans-Bold', 'DejaVu Sans', sans-serif;font-weight:700;font-size:352.595px;">K</text>
            <text x="991.598px" y="1038.33px" style="font-family:'DejaVuSans', 'DejaVu Sans', sans-serif;font-size:352.595px;">Then</text>
            <text x="1870.85px" y="1038.33px" style="font-family:'DejaVuSans-Bold', 'DejaVu Sans', sans-serif;font-weight:700;font-size:352.595px;">X</text>
        </g>
        <g transform="matrix(1,0,0,1,-20.09,-30.5187)">
            <path d="M2205.51,744.181L391.52,744.181L391.52,1151.28L2205.51,1151.28L2205.51,744.181ZM2155.51,794.181L2155.51,1101.28C1895.66,1101.28 701.375,1101.28 441.52,1101.28C441.52,1101.28 441.52,794.181 441.52,794.181C441.52,794.181 2155.51,794.181 2155.51,794.181L2155.51,794.181Z"/>
        </g>
        <g transform="matrix(0.840283,0,0,1,1086.98,5.68434e-14)">
            <rect x="654.938" y="470.785" width="59.039" height="242.877"/>
        </g>
        <g transform="matrix(0.840283,0,0,1,243.058,649.978)">
            <rect x="654.938" y="470.785" width="59.039" height="242.877"/>
        </g>
        <g transform="matrix(1,0,0,0.920665,972.946,86.956)">
            <rect x="343.626" y="416.904" width="370.351" height="53.881"/>
        </g>
        <g transform="matrix(1,0,0,0.920665,449.765,930.205)">
            <rect x="343.626" y="416.904" width="370.351" height="53.881"/>
        </g>
        <g transform="matrix(1,0,0,1,421.961,5.68434e-14)">
            <g transform="matrix(1.02154,0,0,1,6.24039,9.96413)">
                <path d="M869.637,437.73C869.637,411.296 848.629,389.835 822.753,389.835L404.373,389.835C378.497,389.835 357.489,411.296 357.489,437.73L357.489,533.518C357.489,559.951 378.497,581.412 404.373,581.412L822.753,581.412C848.629,581.412 869.637,559.951 869.637,533.518L869.637,437.73Z"/>
                <path d="M869.637,437.73C869.637,411.296 848.629,389.835 822.753,389.835L404.373,389.835C378.497,389.835 357.489,411.296 357.489,437.73L357.489,533.518C357.489,559.951 378.497,581.412 404.373,581.412L822.753,581.412C848.629,581.412 869.637,559.951 869.637,533.518L869.637,437.73ZM406.434,439.835L406.434,531.412L820.692,531.412L820.692,439.835L406.434,439.835Z"/>
            </g>
            <g transform="matrix(1,0,0,1,-80.7753,-11.3529)">
                <text x="470.965px" y="546.966px" style="font-family:'Consolas', monospace;font-size:110.417px;fill:white;">01101011</text>
            </g>
        </g>
        <g transform="matrix(1,0,0,1,792.312,843.249)">
            <g transform="matrix(1.02154,0,0,1,6.24039,9.96413)">
                <path d="M869.637,437.73C869.637,411.296 848.629,389.835 822.753,389.835L404.373,389.835C378.497,389.835 357.489,411.296 357.489,437.73L357.489,533.518C357.489,559.951 378.497,581.412 404.373,581.412L822.753,581.412C848.629,581.412 869.637,559.951 869.637,533.518L869.637,437.73Z"/>
                <path d="M869.637,437.73C869.637,411.296 848.629,389.835 822.753,389.835L404.373,389.835C378.497,389.835 357.489,411.296 357.489,437.73L357.489,533.518C357.489,559.951 378.497,581.412 404.373,581.412L822.753,581.412C848.629,581.412 869.637,559.951 869.637,533.518L869.637,437.73ZM406.434,439.835L406.434,531.412L820.692,531.412L820.692,439.835L406.434,439.835Z"/>
            </g>
            <g transform="matrix(1,0,0,1,-80.7753,-11.3529)">
                <text x="470.965px" y="546.966px" style="font-family:'Consolas', monospace;font-size:110.417px;fill:white;">01111000</text>
            </g>
        </g>
    </g>
</svg>
